<svg width="60" height="60" viewBox="0 0 60 60" fill="none" xmlns="http://www.w3.org/2000/svg">
<path d="M30 35L29.2929 35.7071L30 36.4142L30.7071 35.7071L30 35ZM31 12.5C31 11.9477 30.5523 11.5 30 11.5C29.4477 11.5 29 11.9477 29 12.5L31 12.5ZM16.7929 23.2071L29.2929 35.7071L30.7071 34.2929L18.2071 21.7929L16.7929 23.2071ZM30.7071 35.7071L43.2071 23.2071L41.7929 21.7929L29.2929 34.2929L30.7071 35.7071ZM31 35L31 12.5L29 12.5L29 35L31 35Z" fill="#333333"/>
<path d="M12.5 40L12.5 42.5C12.5 45.2614 14.7386 47.5 17.5 47.5L42.5 47.5C45.2614 47.5 47.5 45.2614 47.5 42.5V40" stroke="#333333" stroke-width="2"/>
</svg>
