<svg width="1920" height="251" viewBox="0 0 1920 251" fill="none" xmlns="http://www.w3.org/2000/svg">
<path d="M1920 191.415L1874.13 187.775C1828.27 184.27 1736.53 176.991 1645.23 175.239C1553.71 173.486 1462.83 176.991 1371.31 183.731C1280 190.471 1188.27 200.446 1096.96 205.973C1005.44 211.635 914.56 212.983 823.04 222.149C731.733 231.45 640 248.435 548.693 250.726C457.173 253.018 366.293 240.347 274.773 234.146C183.467 227.81 91.7332 227.81 45.8666 227.81H-0.000100136V0H45.8666C91.7332 0 183.467 0 274.773 0C366.293 0 457.173 0 548.693 0C640 0 731.733 0 823.04 0C914.56 0 1005.44 0 1096.96 0C1188.27 0 1280 0 1371.31 0C1462.83 0 1553.71 0 1645.23 0C1736.53 0 1828.27 0 1874.13 0H1920V191.415Z" fill="#FA7268"/>
<path d="M1920 167.322L1874.13 168.629C1828.27 169.936 1736.53 172.551 1645.23 176.472C1553.71 180.394 1462.83 185.623 1371.31 179.479C1280 173.466 1188.27 155.949 1096.96 159.086C1005.44 162.093 914.56 185.623 823.04 196.472C731.733 207.453 640 205.623 548.693 203.008C457.173 200.394 366.293 196.995 274.773 194.119C183.467 191.244 91.7332 189.152 45.8666 187.976L-0.000100136 186.93V0H45.8666C91.7332 0 183.467 0 274.773 0C366.293 0 457.173 0 548.693 0C640 0 731.733 0 823.04 0C914.56 0 1005.44 0 1096.96 0C1188.27 0 1280 0 1371.31 0C1462.83 0 1553.71 0 1645.23 0C1736.53 0 1828.27 0 1874.13 0H1920V167.322Z" fill="#F16367"/>
<path d="M1920 131.905L1874.13 126.604C1828.27 121.18 1736.53 110.578 1645.23 116.249C1553.71 122.043 1462.83 144.232 1371.31 150.149C1280 156.19 1188.27 145.835 1096.96 142.013C1005.44 138.068 914.56 140.534 823.04 139.548C731.733 138.438 640 134 548.693 134.124C457.173 134.37 366.293 139.301 274.773 137.822C183.467 136.466 91.7332 128.576 45.8666 124.755L-0.000100136 120.81V0H45.8666C91.7332 0 183.467 0 274.773 0C366.293 0 457.173 0 548.693 0C640 0 731.733 0 823.04 0C914.56 0 1005.44 0 1096.96 0C1188.27 0 1280 0 1371.31 0C1462.83 0 1553.71 0 1645.23 0C1736.53 0 1828.27 0 1874.13 0H1920V131.905Z" fill="#E85467"/>
<path d="M1920 93.162L1874.13 92.0118C1828.27 90.8617 1736.53 88.5614 1645.23 90.0566C1553.71 91.6668 1462.83 96.9575 1371.31 99.7178C1280 102.363 1188.27 102.363 1096.96 100.983C1005.44 99.7178 914.56 96.9575 823.04 98.3376C731.733 99.7178 640 105.009 548.693 109.494C457.173 113.865 366.293 117.315 274.773 113.06C183.467 108.919 91.7332 96.9575 45.8666 91.0917L-0.000100136 85.1109V0H45.8666C91.7332 0 183.467 0 274.773 0C366.293 0 457.173 0 548.693 0C640 0 731.733 0 823.04 0C914.56 0 1005.44 0 1096.96 0C1188.27 0 1280 0 1371.31 0C1462.83 0 1553.71 0 1645.23 0C1736.53 0 1828.27 0 1874.13 0H1920V93.162Z" fill="#DE4467"/>
<path d="M1920 79L1874.13 74.1779C1828.27 69.4584 1736.53 59.8143 1645.23 56.9416C1553.71 54.0688 1462.83 57.7623 1371.31 62.5844C1280 67.4065 1188.27 73.1519 1096.96 71.8182C1005.44 70.4844 914.56 61.8662 823.04 58.9935C731.733 56.1208 640 58.7883 548.693 57.4545C457.173 56.1208 366.293 50.5805 274.773 49.9649C183.467 49.2468 91.7332 53.3506 45.8666 55.4026L-0.000100136 57.4545V0H45.8666C91.7332 0 183.467 0 274.773 0C366.293 0 457.173 0 548.693 0C640 0 731.733 0 823.04 0C914.56 0 1005.44 0 1096.96 0C1188.27 0 1280 0 1371.31 0C1462.83 0 1553.71 0 1645.23 0C1736.53 0 1828.27 0 1874.13 0H1920V79Z" fill="#D23467"/>
</svg>
